<?xml version="1.0" encoding="UTF-8" standalone="no"?>
<svg width="740px" height="632px" viewBox="0 0 740 632" version="1.1" xmlns="http://www.w3.org/2000/svg" xmlns:xlink="http://www.w3.org/1999/xlink">
    <!-- Generator: Sketch 3.6 (26304) - http://www.bohemiancoding.com/sketch -->
    <title>Logo</title>
    <desc>Created with Sketch.</desc>
    <defs></defs>
    <g id="Page-1" stroke="none" stroke-width="1" fill="none" fill-rule="evenodd">
        <g id="Logo">
            <g id="Rest">
                <path d="M321.772291,537.976197 L302.004058,533.0594 C302.004058,533.0594 295.613838,585.337171 251.68962,617.497693 C231.280314,632.441019 79.3341565,638.666527 46.3731445,619.315631 C13.4121324,599.964734 20.8444714,574.196167 20.8444714,574.196167 C20.8444714,574.196167 14.5471951,570.953199 7.22176574,552.439466 C-0.103663635,533.925733 -7.07149162,419.379154 18.4723548,378.9646 C44.0162013,338.550046 138.740706,344.354933 138.740706,344.354933 L185.493554,263.394288 C185.493554,263.394288 152.207406,249.258606 146.30053,235.017411 C145.025961,231.944486 137.325281,219.058784 138.7407,214.53093 C140.072051,210.272005 148.894006,212.049342 151.449685,207.612839 C165.066014,183.975716 185.493559,153.879323 185.493559,153.879323 C270.559462,-91.7728494 968.885939,-93.5626039 643.891391,547.616638 L599.242168,546.190779 C599.242168,546.190779 521.661032,599.321551 440.489576,605.156373 C347.331221,611.852845 321.772291,537.976197 321.772291,537.976197 L321.772291,537.976197 L321.772291,537.976197 L321.772291,537.976197 Z" id="Full-BG" fill="#E0CC84"></path>
                <path d="M315.278732,537.613037 C315.278732,537.613037 493.038652,535.136602 482.191864,504.565308 C477.027599,490.010005 471.620094,448.221209 453.560272,411.155499 C434.601624,372.245051 402.469177,338.035443 375.335098,324.181274 C322.353363,297.129761 238.856274,258.062622 238.856274,258.062622 C238.856274,258.062622 265.023027,196.640896 259.4674,187.18396 C245.748707,163.831637 179,153.516163 179,153.516163 C288.781326,-136.70847 1000.05011,-17.566986 637.397833,547.253478 L592.748609,545.827619 C592.748609,545.827619 515.167473,598.958391 433.996017,604.793213 C340.837662,611.489685 315.278732,537.613037 315.278732,537.613037 L315.278732,537.613037 L315.278732,537.613037 L315.278732,537.613037 Z" id="Cap" fill="#864753"></path>
                <g id="Back" transform="translate(202.000000, 278.000000)" fill="#C6B16D">
                    <path d="M89.873048,25.0482843 C80.7920944,20.0397423 69.3237919,17.9928246 62.5071995,15.1652305 C44.836813,7.83536856 9.51133461,0.794456216 9.51133461,0.794456216 C9.51133461,0.794456216 48.604736,78.5527374 42.2656798,82.0635542 C35.9266235,85.5743711 16.7166175,95.9843786 2.08260873,95.9843805 C2.08260873,95.9843805 -6.14194247,159.687156 12.7619761,178.1044 C14.0268092,179.188832 14.7781023,179.667035 16.4242031,180.582618 C16.4242031,180.582618 100.107852,190.550018 104.087053,190.55001 C108.347777,190.550003 141.927532,100.28796 141.927532,100.28796 L120.97165,45.5658948 C120.97165,45.5658948 106.314035,34.1162058 89.873048,25.0482843 L89.873048,25.0482843 L89.873048,25.0482843 L89.873048,25.0482843 Z" id="Shape"></path>
                    <path d="M54.7998474,218.308051 C47.8371075,216.339362 39.6194492,206.960569 33.1940419,199.650142 C36.4400213,199.650142 97.8989685,205.436938 97.8989685,205.436938 L90.6866849,220.276739 C90.6866849,220.276739 61.7625874,220.27674 54.7998474,218.308051 L54.7998474,218.308051 L54.7998474,218.308051 L54.7998474,218.308051 Z" id="Back-2"></path>
                </g>
                <g id="Cap-Thing" transform="translate(397.000000, 441.000000)">
                    <path d="M68.7503363,0.52715146 C68.7503363,0.52715146 81.9451571,44.4776249 80.0979674,44.4776252 C78.2507776,44.4776256 70.5778615,52.3257229 59.8529226,40.881575 C59.8529226,40.881575 20.502864,76.2015289 3.20108766,44.4776252 C-14.1006887,12.7537216 62.4712959,8.89499121 62.4712959,8.89499121 L68.7503363,0.52715146 L68.7503363,0.52715146 L68.7503363,0.52715146 L68.7503363,0.52715146 Z" id="Path-16" fill="#C4B069"></path>
                    <ellipse id="Oval-1" fill="#E0CC84" cx="31.5" cy="34.5" rx="15.5" ry="13.5"></ellipse>
                </g>
                <path d="M243.72475,173.588344 C243.72475,173.588344 344.180634,-52.1669306 591.322596,40.5431897 C591.322596,40.5431897 378.038788,-98.2582152 214.187958,160.32467 L243.72475,173.588344 L243.72475,173.588344 L243.72475,173.588344 L243.72475,173.588344 Z" id="Cap-Piece" fill="#783E4B"></path>
                <path d="M512.643718,469.460505 C502.20803,464.382389 481.570782,456.91964 481.570782,456.91964 C481.570782,456.91964 478.025633,412.270733 538.225095,434.595187 C567.986484,446.408314 536.391617,483.596034 536.391617,483.596034 C536.391617,483.596034 520.481641,473.27452 512.643718,469.460505 L512.643718,469.460505 L512.643718,469.460505 L512.643718,469.460505 Z" id="Cap-Piece" fill="#D2BE64"></path>
                <path d="M354.23103,415.460606 C356.896317,406.143534 353.602964,403.180351 353.602964,403.900264 C353.602964,405.917812 321.948788,469.996397 325.59828,471.475865 C329.247772,472.955333 337.329772,460.587395 337.329772,460.587395 C337.329772,460.587395 349.426884,432.254513 354.23103,415.460606 L354.23103,415.460606 L354.23103,415.460606 L354.23103,415.460606 Z" id="Path-40" fill="#C6B26D"></path>
                <path d="M377.743379,348.490563 C377.743379,348.490563 427.994251,392.312213 427.994252,396.545368 C427.994253,400.778523 383.519343,412.30996 372.23563,428.789833 C360.951918,445.269707 337.087538,473.765942 334.6208,472.162562 C332.154062,470.559182 355.829288,407.542084 354.448979,404.763401 C353.06867,401.984719 377.743379,348.490563 377.743379,348.490563 L377.743379,348.490563 L377.743379,348.490563 L377.743379,348.490563 Z" id="Path-39" fill="#F0DC95"></path>
                <path d="M352.008942,363.516839 L360.750935,340.475983 C360.750935,340.475983 216.753888,252.694607 229.544252,281.425886 C229.544252,281.425886 340.187508,310.206315 352.008942,363.516839 L352.008942,363.516839 L352.008942,363.516839 L352.008942,363.516839 Z" id="Path-41" fill="#F0DC95"></path>
                <path d="M211.632995,279.077125 C206.130287,276.174794 195.467657,274.776415 195.467657,274.776415 L189.767526,292.325476 C189.767526,292.325476 214.425112,286.414228 214.425111,284.116327 C214.425111,283.473291 213.771198,280.204891 211.632995,279.077125 L211.632995,279.077125 L211.632995,279.077125 L211.632995,279.077125 Z" id="Path-46" fill="#B88447"></path>
                <path d="M238.813267,256.272059 C238.813267,256.272059 266.755298,195.802041 264.677465,189.320467 C263.72488,186.348982 248.813248,175.302877 230.785724,167.342834 C209.490586,157.939977 184.526934,151.699839 182.867728,151.699839 C179.803912,151.699839 152.768381,209.511359 148.963498,209.511358 C145.158615,209.511358 136.987911,208.269038 136.987911,213.624003 C136.987911,218.978968 141.731484,225.525408 143.10639,229.721529 C143.311517,230.347562 155.38102,250.221847 168.811722,256.272059 C192.055571,266.74286 230.207669,275.595665 230.785724,273.844752 L238.813267,256.272059 L238.813267,256.272059 L238.813267,256.272059 L238.813267,256.272059 Z" id="Path-42" fill="#FFF3C6"></path>
                <path d="M200.455131,258.551321 C200.455131,258.551321 201.948711,247.538706 203.474646,244.805115 C205.000581,242.071525 212.792781,245.198638 213.580579,243.941322 C214.368377,242.684006 224.156031,231.663114 224.156031,227.663178 C224.15603,223.663242 210.438417,212.919245 205.446774,214.403796 C200.455131,215.888348 195.83519,231.764693 192.841258,231.764692 C189.847325,231.764692 187.717939,229.290691 183.63373,231.236484 C179.549522,233.182277 180.471253,245.35063 180.471253,245.35063 L200.455131,258.551321 L200.455131,258.551321 L200.455131,258.551321 L200.455131,258.551321 Z" id="Path-44" fill="#CCBE91"></path>
                <path d="M164.260075,235.906087 C164.260075,235.906087 169.743134,226.674913 171.269069,223.941322 C172.795004,221.207731 181.792781,225.198638 182.580579,223.941322 C183.368377,222.684006 185.903824,213.066722 185.903823,209.066786 C185.903823,205.06685 172.634608,195.58017 167.642965,197.064721 C162.651322,198.549273 164.83519,211.764693 161.841258,211.764692 C158.847325,211.764692 156.717939,209.290691 152.63373,211.236484 C148.549522,213.182277 149.471253,225.35063 149.471253,225.35063 L164.260075,235.906087 L164.260075,235.906087 L164.260075,235.906087 L164.260075,235.906087 Z" id="Path-44" fill="#CCBE91"></path>
                <path d="M418.49,142.83 L378.56,211.965 L418.16,212.13 L418.49,142.83 Z M419.975,257.34 L418.16,257.34 L418.16,215.265 L374.105,215.265 L372.785,215.265 L371.795,215.265 L417.5,137.055 L421.79,137.055 L421.79,212.13 L433.34,212.13 L433.34,215.265 L421.79,215.265 L421.79,257.34 L419.975,257.34 Z M448.025,163.785 C448.135001,163.454998 448.19,162.575007 448.19,161.145 C448.19,159.714993 448.382498,157.98251 448.7675,155.9475 C449.152502,153.91249 449.812495,151.740012 450.7475,149.43 C451.682505,147.119988 453.084991,144.97501 454.955,142.995 C459.245021,138.484977 465.129963,136.23 472.61,136.23 C479.980037,136.23 485.754979,138.484977 489.935,142.995 C491.805009,144.97501 493.207495,147.174988 494.1425,149.595 C495.077505,152.015012 495.709998,154.297489 496.04,156.4425 C496.370002,158.587511 496.535,160.429992 496.535,161.97 L496.535,164.775 L496.535,232.425 C496.535,236.825022 495.930006,241.05998 494.72,245.13 C493.509994,249.20002 491.475014,252.389988 488.615,254.7 C486.414989,256.460009 483.940014,257.642497 481.19,258.2475 C478.439986,258.852503 475.580015,259.155 472.61,259.155 C471.069992,259.155 469.035013,259.017501 466.505,258.7425 C463.974987,258.467499 461.472512,257.450009 458.9975,255.69 C456.522488,253.929991 454.377509,251.152519 452.5625,247.3575 C450.747491,243.562481 449.84,238.145035 449.84,231.105 L453.305,231.105 C453.194999,237.375031 453.909992,242.159984 455.45,245.46 C456.990008,248.760017 458.832489,251.179992 460.9775,252.72 C463.122511,254.260008 465.294989,255.139999 467.495,255.36 C469.695011,255.580001 471.399994,255.69 472.61,255.69 C475.140013,255.69 477.614988,255.415003 480.035,254.865 C482.455012,254.314997 484.62749,253.187509 486.5525,251.4825 C488.47751,249.777491 490.017494,247.412515 491.1725,244.3875 C492.327506,241.362485 492.905,237.375025 492.905,232.425 L492.905,204.705 C493.015001,205.585004 492.657504,206.684993 491.8325,208.005 C491.007496,209.325007 490.210004,210.424996 489.44,211.305 C485.149979,215.815023 479.265037,218.07 471.785,218.07 C464.414963,218.07 458.640021,215.815023 454.46,211.305 C452.589991,209.32499 451.187505,207.152512 450.2525,204.7875 C449.317495,202.422488 448.685002,200.19501 448.355,198.105 C448.024998,196.01499 447.86,194.227507 447.86,192.7425 L447.86,190.02 L448.025,163.785 Z M451.49,190.02 L451.49,192.33 C451.49,193.650007 451.627499,195.244991 451.9025,197.115 C452.177501,198.985009 452.699996,200.992489 453.47,203.1375 C454.240004,205.282511 455.449992,207.234991 457.1,208.995 C460.510017,212.735019 465.404968,214.605 471.785,214.605 C478.275032,214.605 483.334982,212.680019 486.965,208.83 C489.165011,206.409988 490.704996,203.660015 491.585,200.58 C492.465004,197.499985 492.905,195.025009 492.905,193.155 L492.905,164.61 C492.905,164.61 492.9325,163.922507 492.9875,162.5475 C493.0425,161.172493 492.905002,159.49501 492.575,157.515 C492.244998,155.53499 491.695004,153.445011 490.925,151.245 C490.154996,149.044989 488.945008,147.065009 487.295,145.305 C483.884983,141.564981 478.990032,139.695 472.61,139.695 C466.119968,139.695 461.060018,141.619981 457.43,145.47 C455.779992,147.230009 454.570004,149.15499 453.8,151.245 C453.029996,153.33501 452.480002,155.287491 452.15,157.1025 C451.819998,158.917509 451.655,160.457494 451.655,161.7225 L451.655,163.62 L451.49,190.02 Z M572.27,230.61 C572.159999,230.940002 572.105,231.819993 572.105,233.25 C572.105,234.680007 571.912502,236.41249 571.5275,238.4475 C571.142498,240.48251 570.482505,242.654988 569.5475,244.965 C568.612495,247.275012 567.210009,249.41999 565.34,251.4 C561.049979,255.910023 555.165037,258.165 547.685,258.165 C540.314963,258.165 534.540021,255.910023 530.36,251.4 C528.489991,249.41999 527.087505,247.220012 526.1525,244.8 C525.217495,242.379988 524.585002,240.070011 524.255,237.87 C523.814998,235.339987 523.649999,232.755013 523.76,230.115 L527.39,230.115 L527.39,232.26 C527.39,233.580007 527.527499,235.174991 527.8025,237.045 C528.077501,238.915009 528.599996,240.949989 529.37,243.15 C530.140004,245.350011 531.349992,247.329991 533,249.09 C536.410017,252.830019 541.304968,254.7 547.685,254.7 C554.175032,254.7 559.234982,252.775019 562.865,248.925 C564.515008,247.164991 565.724996,245.24001 566.495,243.15 C567.265004,241.05999 567.814998,239.107509 568.145,237.2925 C568.475002,235.477491 568.64,233.937506 568.64,232.6725 C568.64,231.407494 568.64,230.775 568.64,230.775 L572.27,230.61 Z M568.64,230.775 L568.64,205.53 C568.64,205.419999 568.6675,204.677507 568.7225,203.3025 C568.7775,201.927493 568.667501,200.305009 568.3925,198.435 C568.117499,196.564991 567.595004,194.557511 566.825,192.4125 C566.054996,190.267489 564.845008,188.315009 563.195,186.555 C559.564982,182.59498 554.670031,180.615 548.51,180.615 C543.449975,180.504999 538.995019,180.45 535.145,180.45 L524.75,180.45 L524.915,139.035 L524.915,137.22 L571.28,137.22 L571.28,139.035 L571.28,140.025 L528.545,140.025 L528.38,177.315 L548.51,177.48 C555.880037,177.48 561.654979,179.734977 565.835,184.245 C567.705009,186.22501 569.107495,188.397488 570.0425,190.7625 C570.977505,193.127512 571.609998,195.35499 571.94,197.445 C572.270002,199.53501 572.4075,201.322493 572.3525,202.8075 C572.2975,204.292507 572.27,205.199998 572.27,205.53 L572.27,230.61 L568.64,230.775 Z M647.675,231.105 L647.675,233.745 C647.675,235.175007 647.455002,236.90749 647.015,238.9425 C646.574998,240.97751 645.887505,243.149988 644.9525,245.46 C644.017495,247.770012 642.615009,249.91499 640.745,251.895 C636.454979,256.405023 630.570037,258.66 623.09,258.66 C615.719963,258.66 609.945021,256.405023 605.765,251.895 C603.894991,249.91499 602.492505,247.715012 601.5575,245.295 C600.622495,242.874988 599.990002,240.592511 599.66,238.4475 C599.329998,236.302489 599.165,234.460008 599.165,232.92 L599.165,230.115 L599.165,162.465 C599.165,158.064978 599.797494,154.132517 601.0625,150.6675 C602.327506,147.202483 604.334986,144.260012 607.085,141.84 C609.285011,139.85999 611.759986,138.347505 614.51,137.3025 C617.260014,136.257495 620.119985,135.735 623.09,135.735 C626.060015,135.735 628.947486,136.229995 631.7525,137.22 C634.557514,138.210005 637.059989,139.639991 639.26,141.51 C644.870028,146.460025 647.675,153.444955 647.675,162.465 L647.675,231.105 Z M644.21,162.465 C644.21,158.174979 643.577506,154.545015 642.3125,151.575 C641.047494,148.604985 639.39751,146.212509 637.3625,144.3975 C635.32749,142.582491 633.045013,141.262504 630.515,140.4375 C627.984987,139.612496 625.510012,139.2 623.09,139.2 C620.559987,139.2 618.057512,139.667495 615.5825,140.6025 C613.107488,141.537505 610.935009,142.939991 609.065,144.81 C607.194991,146.680009 605.682506,149.099985 604.5275,152.07 C603.372494,155.040015 602.795,158.50498 602.795,162.465 L602.795,230.28 C602.795,230.28 602.7675,230.967493 602.7125,232.3425 C602.6575,233.717507 602.794998,235.39499 603.125,237.375 C603.455002,239.35501 604.004996,241.444989 604.775,243.645 C605.545004,245.845011 606.754992,247.824991 608.405,249.585 C611.815017,253.325019 616.709968,255.195 623.09,255.195 C629.580032,255.195 634.639982,253.270019 638.27,249.42 C639.920008,247.659991 641.129996,245.73501 641.9,243.645 C642.670004,241.55499 643.219998,239.602509 643.55,237.7875 C643.880002,235.972491 644.045,234.432506 644.045,233.1675 L644.045,231.27 L644.21,162.465 Z" id="4950" fill="#C6B16D"></path>
            </g>
            <path d="M41.3671058,589.296549 L41.5732744,557.165543 C41.5732744,557.165543 33.2216057,567.941534 33.2216057,572.760724 C33.2216056,577.579914 41.3671058,589.296549 41.3671058,589.296549 L41.3671058,589.296549 L41.3671058,589.296549 L41.3671058,589.296549 Z M20.4409938,449.696483 C20.4409938,449.696483 19.0357372,550.574336 24.1741178,551.670779 C29.3124985,552.767222 40.5111383,528.568854 43.7085929,521.975139 C46.9060475,515.381424 51.5227497,469.124191 51.5227497,469.124191 L20.4409938,449.696483 L20.4409938,449.696483 L20.4409938,449.696483 L20.4409938,449.696483 Z M66.5031068,478.272922 C64.2714041,479.995036 63.1376036,502.201166 65.143228,504.556615 C67.1488524,506.912065 86.0423156,491.557487 85.7301688,488.058567 C85.4180219,484.559647 68.7348095,476.550808 66.5031068,478.272922 L66.5031068,478.272922 L66.5031068,478.272922 L66.5031068,478.272922 Z M31.1102184,431.855536 C37.0197126,442.41889 56.2038812,448.96937 56.2038812,448.96937 L66.0318643,431.855536 C66.0318643,431.855536 45.1611977,417.904181 38.8249734,417.904181 C32.4887491,417.904182 25.2007241,421.292183 31.1102184,431.855536 L31.1102184,431.855536 L31.1102184,431.855536 L31.1102184,431.855536 Z M82.9395296,439.062233 L72.6200553,458.740289 L110.188759,474.84721 L122.006637,455.356915 L82.9395296,439.062233 L82.9395296,439.062233 L82.9395296,439.062233 L82.9395296,439.062233 Z M61.0357078,527.817942 C59.117951,532.125955 59.0967864,602.28883 59.0967864,602.28883 C84.6857261,614.518755 204.705246,626.888177 232.209854,606.744722 C259.714462,586.601267 275.053455,568.892955 278.327182,531.512765 L107.682169,493.491785 C107.682169,493.491785 62.9534646,523.509928 61.0357078,527.817942 L61.0357078,527.817942 L61.0357078,527.817942 L61.0357078,527.817942 Z M137.302828,396.355858 L129.347633,437.377214 C129.347633,437.377214 72.1994097,424.663823 60.0937695,409.844505 C75.8728573,393.782979 137.302828,396.355858 137.302828,396.355858 L137.302828,396.355858 L137.302828,396.355858 L137.302828,396.355858 Z M158.276806,398.846614 L146.370181,444.426032 L217.444591,458.032281 C213.300677,453.963978 200.401993,445.818903 202.96055,398.303025 L158.276806,398.846614 L158.276806,398.846614 L158.276806,398.846614 L158.276806,398.846614 Z M321.557182,324.114534 C321.557182,324.114534 370.270398,352.952087 344.504669,374.929129 C336.116231,385.528266 279.82648,355.030479 321.557182,324.114534 L321.557182,324.114534 L321.557182,324.114534 L321.557182,324.114534 Z M60.5116675,371.115057 C53.9886438,373.145226 39.6018336,381.586202 39.6018336,381.586202 C39.6018336,381.586202 37.9579907,387.209435 38.0898086,390.032309 C38.1968189,392.323929 40.3183181,396.929685 40.3183181,396.929685 C40.3183181,396.929685 55.0888638,390.893944 62.6907419,388.805027 C70.7332261,386.595037 87.2514053,384.032963 87.2514053,384.032963 C87.2514053,384.032963 87.3589457,376.705557 87.2514052,375.009179 C87.0009266,371.058051 86.1773481,367.090447 86.1773481,367.090447 C86.1773481,367.090447 69.5138153,368.313307 60.5116675,371.115057 L60.5116675,371.115057 L60.5116675,371.115057 L60.5116675,371.115057 Z M480.423722,456.349863 C482.145134,456.349863 537.265365,479.447421 537.265366,483.70032 C537.265366,487.953218 497.423638,499.892755 488.874997,493.393972 C480.326357,486.895188 478.702309,456.349863 480.423722,456.349863 L480.423722,456.349863 L480.423722,456.349863 L480.423722,456.349863 Z M138.60689,460.466951 L126.952842,475.91671 C126.952842,475.91671 244.262777,513.323423 285.130172,509.590299 L292.493336,497.437397 C292.493336,497.437397 265.197044,496.656717 260.088615,494.724065 C254.980186,492.791414 234.613344,477.411432 234.613344,477.411432 C234.613344,477.411432 149.736312,471.852243 138.60689,460.466951 L138.60689,460.466951 L138.60689,460.466951 L138.60689,460.466951 Z" id="Transparent" fill="#FFFFFF"></path>
        </g>
    </g>
</svg>