<?xml version="1.0" encoding="UTF-8" standalone="no"?>
<svg width="301px" height="301px" viewBox="0 0 301 301" version="1.1" xmlns="http://www.w3.org/2000/svg" xmlns:xlink="http://www.w3.org/1999/xlink" xmlns:sketch="http://www.bohemiancoding.com/sketch/ns">
    <!-- Generator: Sketch 3.5.2 (25235) - http://www.bohemiancoding.com/sketch -->
    <title>Play-round-2</title>
    <desc>Created with Sketch.</desc>
    <defs></defs>
    <g id="Page-1" stroke="none" stroke-width="1" fill="none" fill-rule="evenodd" sketch:type="MSPage">
        <g id="Desktop-HD" sketch:type="MSArtboardGroup" transform="translate(-452.000000, -23469.000000)" fill="#FFFFFF">
            <g id="Group-4" sketch:type="MSLayerGroup" transform="translate(413.000000, 23469.000000)">
                <g id="play-round-2" transform="translate(39.000000, 0.000000)" sketch:type="MSShapeGroup">
                    <g id="Play-round-2">
                        <g id="Page-1">
                            <path d="M150.419742,0 C67.4730323,0 0.0161290323,67.4942333 0.0161290323,150.459867 C0.0161290323,233.415467 67.4830645,300.8796 150.419742,300.8796 C233.356419,300.8796 300.883548,233.405433 300.883548,150.459867 C300.883548,67.4942333 233.366452,0 150.419742,0 L150.419742,0 L150.419742,0 Z M150.419742,290.083733 C73.4321935,290.083733 10.8108387,227.475733 10.8108387,150.459867 C10.8108387,73.444 73.4321935,10.7958667 150.419742,10.7958667 C227.427355,10.7958667 290.088839,73.444 290.088839,150.459867 C290.088839,227.475733 227.427355,290.083733 150.419742,290.083733 L150.419742,290.083733 L150.419742,290.083733 Z M218.237806,136.212533 L124.065,83.9288333 C111.233742,76.7951333 98.9442258,84.3602667 98.9442258,98.728 L98.9442258,202.161633 C98.9442258,212.726733 105.013742,219.840367 114.032742,219.840367 C117.283194,219.840367 120.674097,218.877167 124.085065,216.980867 L218.237806,164.6771 C224.467839,161.225633 228.059387,156.0384 228.059387,150.4699 C228.059387,144.9014 224.467839,139.704133 218.237806,136.212533 L218.237806,136.212533 L218.237806,136.212533 Z M212.990935,155.2257 L118.858258,207.529467 C117.072516,208.512733 115.427226,209.034467 114.042774,209.034467 C110.320806,209.034467 109.748968,204.7402 109.748968,202.1516 L109.748968,98.728 C109.748968,96.1594667 110.320806,91.8652 114.042774,91.8652 C115.437258,91.8652 117.082548,92.3969667 118.858258,93.3702 L212.990935,145.6539 C215.619387,147.118767 217.264677,148.9649 217.264677,150.459867 C217.254645,151.934767 215.609355,153.770867 212.990935,155.2257 L212.990935,155.2257 L212.990935,155.2257 Z" id="Play-round-2"></path>
                        </g>
                    </g>
                </g>
            </g>
        </g>
    </g>
</svg>